<svg width="18" height="18" viewBox="0 0 18 18" fill="none" xmlns="http://www.w3.org/2000/svg">
<path d="M15.92 3.01322C15.5201 2.60554 15.0454 2.28215 14.5229 2.0615C14.0004 1.84086 13.4403 1.72729 12.8747 1.72729C12.3092 1.72729 11.7491 1.84086 11.2266 2.0615C10.7041 2.28215 10.2294 2.60554 9.82953 3.01322L8.99972 3.85889L8.16992 3.01322C7.36228 2.19013 6.26688 1.72772 5.1247 1.72772C3.98253 1.72772 2.88713 2.19013 2.07949 3.01322C1.27184 3.83631 0.818115 4.95266 0.818115 6.11668C0.818115 7.28071 1.27184 8.39706 2.07949 9.22015L2.90929 10.0658L8.99972 16.2728L15.0902 10.0658L15.92 9.22015C16.32 8.81266 16.6373 8.32885 16.8538 7.79635C17.0703 7.26385 17.1818 6.69309 17.1818 6.11668C17.1818 5.54028 17.0703 4.96952 16.8538 4.43702C16.6373 3.90452 16.32 3.4207 15.92 3.01322Z" stroke="#767676" stroke-width="1.5" stroke-linecap="round" stroke-linejoin="round"/>
</svg>
