<svg width="40" height="40" viewBox="0 0 40 40" fill="none" xmlns="http://www.w3.org/2000/svg">
<g filter="url(#filter0_d_88_10533)">
<circle cx="20" cy="19" r="16" fill="white"/>
<path d="M20 27.0001L19.7322 26.7619C13.6402 21.7263 12 19.957 12 17.0649C12 14.6832 13.9079 12.7778 16.2176 12.7778C18.159 12.7778 19.2636 13.9006 20 14.7512C20.7364 13.9006 21.841 12.7778 23.7824 12.7778C26.1255 12.7778 28 14.7172 28 17.0649C28 19.957 26.3598 21.7263 20.2678 26.7619L20 27.0001ZM16.2176 13.6625C14.3766 13.6625 12.8703 15.1936 12.8703 17.0649C12.8703 19.5487 14.41 21.1819 20 25.8432C25.59 21.1819 27.1297 19.5487 27.1297 17.0649C27.1297 15.1936 25.6234 13.6625 23.7824 13.6625C22.1088 13.6625 21.205 14.6832 20.5021 15.4998L20 16.0782L19.4979 15.4998C18.795 14.6832 17.8912 13.6625 16.2176 13.6625Z" stroke="#767676"/>
</g>
<defs>
<filter id="filter0_d_88_10533" x="0" y="0" width="40" height="40" filterUnits="userSpaceOnUse" color-interpolation-filters="sRGB">
<feFlood flood-opacity="0" result="BackgroundImageFix"/>
<feColorMatrix in="SourceAlpha" type="matrix" values="0 0 0 0 0 0 0 0 0 0 0 0 0 0 0 0 0 0 127 0" result="hardAlpha"/>
<feOffset dy="1"/>
<feGaussianBlur stdDeviation="2"/>
<feComposite in2="hardAlpha" operator="out"/>
<feColorMatrix type="matrix" values="0 0 0 0 0 0 0 0 0 0 0 0 0 0 0 0 0 0 0.15 0"/>
<feBlend mode="normal" in2="BackgroundImageFix" result="effect1_dropShadow_88_10533"/>
<feBlend mode="normal" in="SourceGraphic" in2="effect1_dropShadow_88_10533" result="shape"/>
</filter>
</defs>
</svg>
