<svg width="10" height="15" viewBox="0 0 10 15" fill="none" xmlns="http://www.w3.org/2000/svg">
<path d="M4.86596 14.2156L4.60528 13.8979C4.4315 13.6668 0 8.49669 0 5.40615C0 2.71998 2.20127 0.553711 4.86596 0.553711C7.53065 0.553711 9.73191 2.74887 9.73191 5.40615C9.73191 8.49669 5.30042 13.6957 5.12663 13.8979L4.86596 14.2156ZM4.86596 1.21804C2.54884 1.21804 0.695139 3.09547 0.695139 5.37727C0.695139 7.80348 3.91014 11.9338 4.86596 13.1181C5.82177 11.9338 9.03677 7.83237 9.03677 5.37727C9.03677 3.09547 7.18308 1.21804 4.86596 1.21804Z" fill="black"/>
<path d="M4.86639 7.25472C3.85265 7.25472 3.0127 6.41709 3.0127 5.40617C3.0127 4.39525 3.85265 3.55762 4.86639 3.55762C5.88013 3.55762 6.72009 4.39525 6.72009 5.40617C6.72009 6.41709 5.88013 7.25472 4.86639 7.25472ZM4.86639 4.25083C4.22918 4.25083 3.70783 4.77073 3.70783 5.40617C3.70783 6.04161 4.22918 6.56151 4.86639 6.56151C5.5036 6.56151 6.02495 6.04161 6.02495 5.40617C6.02495 4.77073 5.5036 4.25083 4.86639 4.25083Z" fill="black"/>
</svg>
