<svg width="20" height="24" viewBox="0 0 20 24" fill="none" xmlns="http://www.w3.org/2000/svg">
<path d="M10 23.0002C9.68676 22.9974 9.37755 22.9293 9.09216 22.8002C8.80677 22.6711 8.55149 22.4837 8.34267 22.2503C5.60544 19.2506 1.00091 13.5436 1.00091 9.77151C0.966835 7.3495 1.89541 5.01298 3.5827 3.27508C5.26999 1.53717 7.57804 0.539956 10 0.502441C12.422 0.539956 14.73 1.53717 16.4173 3.27508C18.1046 5.01298 19.0332 7.3495 18.9991 9.77151C18.9991 13.5211 14.3946 19.2131 11.6573 22.2578C11.4478 22.4899 11.1923 22.6758 10.9069 22.8036C10.6215 22.9314 10.3127 22.9984 10 23.0002ZM10 2.00229C7.97646 2.04172 6.05103 2.88151 4.64542 4.33771C3.23982 5.79392 2.46862 7.74784 2.50075 9.77151C2.50075 12.1263 5.10299 16.4158 9.46005 21.2529C9.53001 21.3254 9.61388 21.3832 9.70665 21.4226C9.79943 21.462 9.8992 21.4823 10 21.4823C10.1008 21.4823 10.2006 21.462 10.2933 21.4226C10.3861 21.3832 10.47 21.3254 10.5399 21.2529C14.897 16.4158 17.4992 12.1263 17.4992 9.77151C17.5314 7.74784 16.7602 5.79392 15.3546 4.33771C13.949 2.88151 12.0235 2.04172 10 2.00229Z" fill="#767676" stroke="#767676" stroke-width="0.3"/>
<path d="M10 14.001C9.11011 14.001 8.24017 13.7372 7.50022 13.2427C6.76028 12.7483 6.18356 12.0456 5.843 11.2234C5.50244 10.4012 5.41333 9.49651 5.58695 8.62368C5.76056 7.75086 6.1891 6.94912 6.81838 6.31984C7.44765 5.69057 8.24939 5.26203 9.12222 5.08841C9.99505 4.9148 10.8998 5.0039 11.7219 5.34446C12.5441 5.68502 13.2469 6.26174 13.7413 7.00169C14.2357 7.74163 14.4996 8.61158 14.4996 9.5015C14.4996 10.6949 14.0255 11.8393 13.1817 12.6832C12.3379 13.527 11.1934 14.001 10 14.001ZM10 6.5018C9.40675 6.5018 8.82679 6.67773 8.33349 7.00734C7.8402 7.33696 7.45572 7.80544 7.22868 8.35357C7.00164 8.90169 6.94223 9.50483 7.05798 10.0867C7.17372 10.6686 7.45941 11.2031 7.87893 11.6226C8.29845 12.0421 8.83294 12.3278 9.41483 12.4436C9.99671 12.5593 10.5998 12.4999 11.148 12.2729C11.6961 12.0458 12.1646 11.6613 12.4942 11.168C12.8238 10.6747 12.9997 10.0948 12.9997 9.5015C12.9997 8.70593 12.6837 7.94295 12.1211 7.3804C11.5586 6.81784 10.7956 6.5018 10 6.5018Z" fill="#767676" stroke="#767676" stroke-width="0.3"/>
</svg>
