<svg width="20" height="24" viewBox="0 0 20 24" fill="none" xmlns="http://www.w3.org/2000/svg">
<path d="M10 23.0002C9.68676 22.9974 9.37755 22.9293 9.09216 22.8002C8.80677 22.6711 8.55149 22.4837 8.34267 22.2503C5.60544 19.2506 1.00091 13.5436 1.00091 9.77151C0.966835 7.3495 1.89541 5.01298 3.5827 3.27508C5.26999 1.53717 7.57804 0.539956 10 0.502441C12.422 0.539956 14.73 1.53717 16.4173 3.27508C18.1046 5.01298 19.0332 7.3495 18.9991 9.77151C18.9991 13.5211 14.3946 19.2131 11.6573 22.2578C11.4478 22.4899 11.1923 22.6758 10.9069 22.8036C10.6215 22.9314 10.3127 22.9984 10 23.0002Z" fill="#3C70BC" stroke="#3C70BC"/>
<path d="M7.50022 13.2427C8.24017 13.7372 9.11011 14.001 10 14.001C11.1934 14.001 12.3379 13.527 13.1817 12.6832C14.0255 11.8393 14.4996 10.6949 14.4996 9.5015C14.4996 8.61158 14.2357 7.74163 13.7413 7.00169C13.2469 6.26174 12.5441 5.68502 11.7219 5.34446C10.8998 5.0039 9.99505 4.9148 9.12222 5.08841C8.24939 5.26203 7.44765 5.69057 6.81838 6.31984C6.1891 6.94912 5.76056 7.75086 5.58695 8.62368C5.41333 9.49651 5.50244 10.4012 5.843 11.2234C6.18356 12.0456 6.76028 12.7483 7.50022 13.2427Z" fill="white"/>
</svg>
